# xmcd
#
# Track frame offsets: 
#        150
#        13443
#        29987
#        47363
#        62056
#        75432
#        91060
#        104399
#        117488
#        133536
#        147833
#        165043
#
# Disc length: 2348 seconds
#
# Revision: 0
# Processed by: cddbd v1.5.2PL0 Copyright (c) Steve Scherf et al.
# Submitted via: ExactAudioCopyFreeDBPlugin 1.0
#
DISCID=97092a0c
DTITLE=Marc Lelangue Trio - Lost In The Blues
DYEAR=2016
DGENRE=Blues
TTITLE0=Empty House Blues
TTITLE1=Forgive Me Please
TTITLE2=Send My Body To Bourbon Street
TTITLE3=You Missed A Good Man
TTITLE4=Don't Pitty Me
TTITLE5=Too Lazy
TTITLE6=In The Evening
TTITLE7=Walk On
TTITLE8=Mississippi Heavy Water Blues
TTITLE9=Take Me Back
TTITLE10=The Road To Recovery
TTITLE11=I'll Stay Right Here
EXTD=
EXTT0=
EXTT1=
EXTT2=
EXTT3=
EXTT4=
EXTT5=
EXTT6=
EXTT7=
EXTT8=
EXTT9=
EXTT10=
EXTT11=
PLAYORDER=
